<svg xmlns="http://www.w3.org/2000/svg" xmlns:xlink="http://www.w3.org/1999/xlink" version="1.1" width="256" height="256" viewBox="0 0 256 256" xml:space="preserve">

<defs>
</defs>
<g style="stroke: none; stroke-width: 0; stroke-dasharray: none; stroke-linecap: butt; stroke-linejoin: miter; stroke-miterlimit: 10; fill: none; fill-rule: nonzero; opacity: 1;" transform="translate(1.4065934065934016 1.4065934065934016) scale(2.81 2.81)" >
	<circle cx="45" cy="45" r="45" style="stroke: none; stroke-width: 1; stroke-dasharray: none; stroke-linecap: butt; stroke-linejoin: miter; stroke-miterlimit: 10; fill: rgb(231,25,46); fill-rule: nonzero; opacity: 1;" transform="  matrix(1 0 0 1 0 0) "/>
	<polygon points="15.5,45.97 15.5,45.97 15.5,45.97 " style="stroke: none; stroke-width: 1; stroke-dasharray: none; stroke-linecap: butt; stroke-linejoin: miter; stroke-miterlimit: 10; fill: rgb(255,255,0); fill-rule: nonzero; opacity: 1;" transform="  matrix(1 0 0 1 0 0) "/>
	<path d="M 74.5 44.928 c -3.142 0.669 -6.7 -0.883 -10.2 -1.128 c -0.016 -0.262 -0.014 -0.529 -0.04 -0.787 c 3.637 -0.702 8.288 0.142 9.842 -2.607 c -3.289 1.257 -6.452 0.046 -10.221 0.349 c -0.058 -0.259 -0.129 -0.512 -0.197 -0.767 c 3.783 -1.396 8.847 -1.375 9.297 -4.255 c -2.469 1.711 -6.401 1.139 -10.001 2.107 c -0.089 -0.223 -0.178 -0.445 -0.275 -0.664 c 3.557 -2.038 8.367 -2.422 8.476 -5.733 c -2.226 2.308 -6.213 2.065 -9.527 3.71 c -0.113 -0.191 -0.226 -0.382 -0.345 -0.569 c 3.118 -2.787 7.181 -3.242 7.469 -7.038 c -2.69 2.925 -5.942 2.972 -8.83 5.14 c -0.152 -0.185 -0.323 -0.353 -0.482 -0.532 c 2.335 -2.86 6.123 -4.058 6.255 -8.165 c -1.722 3.014 -5.187 3.793 -7.823 6.592 c -0.173 -0.155 -0.337 -0.32 -0.516 -0.469 c 1.964 -3.565 5.334 -4.912 4.799 -9.146 c -0.872 3.342 -4.573 4.343 -6.732 7.742 c -0.231 -0.148 -0.467 -0.289 -0.704 -0.428 c 1.166 -3.544 4.609 -5.755 3.464 -9.66 c -0.414 3.516 -3.481 4.575 -5.397 8.664 c -0.263 -0.116 -0.532 -0.22 -0.801 -0.325 c 0.656 -3.966 3.831 -6.622 1.896 -10.081 c -0.05 3.821 -2.772 5.503 -3.927 9.423 c -0.313 -0.083 -0.624 -0.175 -0.943 -0.242 c 0.073 -3.571 2.59 -6.753 0.21 -10.306 c 0.479 4.171 -1.776 5.845 -2.314 9.976 c -0.272 -0.027 -0.551 -0.026 -0.826 -0.042 c -0.622 -4.056 1.27 -7.114 -1.218 -10.167 c 0.707 4.611 -1.097 6.066 -0.974 10.167 c -0.325 0.018 -0.653 0.024 -0.973 0.058 c -1.271 -3.703 -0.296 -7.305 -3.511 -9.707 c 1.702 3.653 0.616 6.405 1.338 10.074 c -0.307 0.069 -0.608 0.151 -0.909 0.234 c -2.088 -3.655 -1.173 -7.078 -5.016 -9.062 c 2.419 3.415 1.56 6.137 2.921 9.763 c -0.274 0.111 -0.541 0.233 -0.808 0.355 c -2.793 -3.488 -2.107 -6.803 -6.294 -8.152 c 2.911 3.034 2.312 5.75 4.397 9.156 c -0.24 0.144 -0.484 0.281 -0.717 0.435 c -3.031 -2.769 -3.243 -6.097 -7.524 -7.101 c 3.417 2.802 3.104 5.474 5.7 8.471 c -0.21 0.177 -0.408 0.368 -0.61 0.554 c -3.161 -2.19 -4.271 -5.753 -8.508 -5.829 c 3.716 2.044 3.802 4.573 7.019 7.354 c -0.199 0.228 -0.394 0.458 -0.582 0.695 c -3.651 -1.616 -4.22 -4.543 -9.32 -4.423 c 4.719 1.843 4.087 3.91 8.048 6.245 c -0.133 0.215 -0.269 0.428 -0.394 0.649 c -3.841 -1.136 -4.439 -3.725 -9.939 -2.894 c 3.807 0.638 4.972 3.291 8.924 4.932 c -0.114 0.271 -0.202 0.554 -0.304 0.83 c -3.505 -0.524 -6.004 -3.129 -10.227 -1.328 c 4.998 0.349 5.561 2.485 9.581 3.454 c -0.06 0.248 -0.13 0.492 -0.18 0.744 c -3.651 -0.049 -6.764 -1.971 -10.302 0.203 c 3.519 -0.334 6.132 1.594 10.002 2.072 c -0.023 0.291 -0.035 0.585 -0.044 0.879 c -3.891 0.609 -7.997 -1.036 -10.183 1.62 c 3.227 -0.858 6.1 0.559 10.228 0.553 c 0.025 0.319 0.059 0.634 0.099 0.948 c -3.363 0.882 -7.605 0.046 -9.762 3.177 c 2.387 -1.428 6.737 -0.613 10.138 -1.137 c 0.073 0.303 0.145 0.606 0.232 0.903 c -2.99 1.269 -7.801 1.515 -9.163 4.686 c 2.563 -1.873 6.709 -1.476 9.839 -2.74 c 0.109 0.264 0.235 0.519 0.355 0.777 c -2.859 2.009 -7.87 2.911 -8.186 6.193 c 2.049 -2.298 6.373 -2.49 9.234 -4.244 c 0.148 0.241 0.283 0.492 0.441 0.726 c -2.57 2.695 -7.323 3.804 -7.088 7.431 c 1.599 -2.714 5.679 -3.323 8.386 -5.739 c 0.179 0.21 0.369 0.41 0.556 0.612 c -2.024 2.809 -6.36 4.849 -5.859 8.447 c 1.398 -2.848 5.118 -4.037 7.491 -6.867 c 0.199 0.17 0.403 0.334 0.609 0.496 c -1.659 3.256 -5.487 5.562 -4.489 9.249 c 1.235 -3.392 4.308 -5.174 6.241 -8.026 c 0.258 0.16 0.513 0.324 0.778 0.473 c -1.105 3.291 -4.197 6.152 -3.004 9.817 c 0.68 -3.381 3.726 -5.663 5.022 -8.835 c 0.233 0.096 0.475 0.173 0.712 0.261 c -0.526 3.558 -3.273 7.114 -1.411 10.219 c -0.25 -2.5 2.697 -5.804 3.489 -9.582 c 0.269 0.066 0.533 0.143 0.807 0.198 c 0.076 3.635 -2.241 7.584 0.043 10.252 c -0.444 -3.381 1.796 -6.295 2.143 -9.954 c 0.342 0.029 0.688 0.042 1.034 0.052 c 0.671 3.415 -1.429 6.799 1.474 10.166 c -0.76 -3.411 0.647 -6.608 0.491 -10.206 c 0.255 -0.018 0.511 -0.027 0.763 -0.055 c 0.841 3.5 -0.055 8.48 2.745 9.846 c -1.285 -3.133 -0.122 -6.787 -0.686 -10.191 c 0.266 -0.059 0.527 -0.133 0.789 -0.203 c 1.725 3.556 1.176 8.039 4.349 9.322 c -1.602 -2.485 -0.863 -6.557 -2.211 -10.021 c 0.25 -0.099 0.498 -0.201 0.742 -0.31 c 2.179 3.062 2.466 7.807 5.683 8.467 c -2.108 -2.091 -1.992 -6.458 -3.635 -9.54 c 0.221 -0.132 0.445 -0.26 0.66 -0.401 c 2.42 2.705 3.921 7.724 6.936 7.564 c -2.07 -1.55 -2.83 -5.848 -5.138 -8.885 c 0.206 -0.172 0.396 -0.361 0.595 -0.541 c 2.78 2.333 5.072 7.014 8.036 6.29 c -2.983 -1.663 -3.665 -5.055 -6.509 -7.833 c 0.185 -0.209 0.374 -0.414 0.55 -0.632 c 3.052 1.892 5.946 5.956 8.88 5.015 c -2.511 -0.615 -4.395 -4.364 -7.611 -6.794 c 0.146 -0.228 0.286 -0.46 0.422 -0.695 c 3.415 1.454 7.347 5.106 9.561 3.593 c -2.134 -0.093 -5.087 -3.595 -8.585 -5.497 c 0.113 -0.256 0.212 -0.518 0.314 -0.779 c 3.747 0.86 7.714 3.807 10.044 2.018 c -2.895 -0.153 -5.809 -2.782 -9.337 -4.241 c 0.058 -0.23 0.127 -0.455 0.177 -0.688 c 3.695 0.531 8.267 2.474 10.201 0.322 c -3.626 0.165 -6.361 -1.844 -9.852 -2.56 c 0.026 -0.273 0.027 -0.552 0.042 -0.828 C 68.333 45.703 73.456 47.346 74.5 44.928 z" style="stroke: none; stroke-width: 1; stroke-dasharray: none; stroke-linecap: butt; stroke-linejoin: miter; stroke-miterlimit: 10; fill: rgb(255,255,0); fill-rule: nonzero; opacity: 1;" transform=" matrix(1 0 0 1 0 0) " stroke-linecap="round" />
	<path d="M 61.87 45.026 c 0 9.293 -7.534 16.827 -16.827 16.827 c -9.293 0 -16.827 -7.534 -16.827 -16.827 s 7.534 -16.827 16.827 -16.827 C 54.336 28.199 61.87 35.733 61.87 45.026 L 61.87 45.026 z" style="stroke: none; stroke-width: 1; stroke-dasharray: none; stroke-linecap: butt; stroke-linejoin: miter; stroke-miterlimit: 10; fill: rgb(231,25,46); fill-rule: nonzero; opacity: 1;" transform=" matrix(1 0 0 1 0 0) " stroke-linecap="round" />
	<path d="M 59.526 45.061 c 0 7.98 -6.469 14.449 -14.449 14.449 c -7.98 0 -14.449 -6.469 -14.449 -14.449 s 6.469 -14.449 14.449 -14.449 S 59.526 37.081 59.526 45.061 z" style="stroke: none; stroke-width: 1; stroke-dasharray: none; stroke-linecap: butt; stroke-linejoin: miter; stroke-miterlimit: 10; fill: rgb(255,255,0); fill-rule: nonzero; opacity: 1;" transform=" matrix(1 0 0 1 0 0) " stroke-linecap="round" />
	<path d="M 32.78 35.593 c 3.999 -0.088 8.979 0.277 12.261 2.905 c 3.484 -2.176 7.608 -3.182 11.809 -2.792 l 2.151 3.924 c -3.119 -0.315 -6.162 0.126 -9.772 1.585 c 4.603 3.647 6.904 8.351 6.753 14.072 c -0.528 0.654 -1.358 1.383 -1.886 2.037 c 0.767 -5.558 -2.163 -11.758 -6.414 -15.015 c 3.458 4.993 5.521 9.495 4.943 15.695 c -0.616 0.365 -1.346 0.88 -1.962 1.245 c 0.905 -5.47 -0.377 -11.884 -4.414 -15.619 c 2.326 3.421 4.653 9.558 3.207 15.808 c -0.629 0.189 -1.597 0.717 -2.226 0.906 c 1.622 -5.118 0.603 -11.519 -2.113 -15.355 c -2.691 3.861 -3.572 9.759 -2.037 15.204 c -0.755 -0.189 -1.321 -0.415 -2.075 -0.604 c -1.107 -5.86 0.428 -12.475 3.094 -15.921 c -2.716 1.572 -5.282 8.312 -4.565 15.204 c -0.654 -0.302 -1.157 -0.528 -1.811 -0.83 c -0.88 -5.144 1.446 -11.834 4.791 -15.695 c -3.798 2.389 -6.879 8.25 -6.338 14.563 c -0.579 -0.516 -1.119 -0.767 -1.698 -1.283 c -0.667 -5.508 2.515 -11.054 6.263 -14.374 c -3.156 -1.409 -5.86 -1.685 -9.771 -1.623 C 31.586 38.36 32.164 36.864 32.78 35.593 L 32.78 35.593 z" style="stroke: none; stroke-width: 1; stroke-dasharray: none; stroke-linecap: butt; stroke-linejoin: miter; stroke-miterlimit: 10; fill: rgb(231,25,46); fill-rule: nonzero; opacity: 1;" transform=" matrix(1 0 0 1 0 0) " stroke-linecap="round" />
</g>
</svg>